# xmcd
#
# Track frame offsets:
#	150
#	15657
#	35060
#	55232
#	71050
#	90807
#	106170
#
# Disc length: 1609 seconds
# Revision: 0
# Processed by: cddbd v1.5.2PL0 Copyright (c) Steve Scherf et al.
# Submitted via: dBpowerAMP V12.0
#
DISCID=50064707
DTITLE=Puffy AmiYumi - SoloSolo [Disc 2]
DYEAR=1997
DGENRE=JPop
TTITLE0=Natural Beauty
TTITLE1=Perfect Couple
TTITLE2=Fireworks
TTITLE3=V・A・C・A・T・I・O・N
TTITLE4=Hold Out As Long As You Can
TTITLE5=Aura of Love
TTITLE6=My Wish
EXTD=
EXTT0=
EXTT1=
EXTT2=
EXTT3=
EXTT4=
EXTT5=
EXTT6=
PLAYORDER=
